<?xml version="1.0" encoding="utf-8"?>
<!-- Generator: Adobe Illustrator 23.0.1, SVG Export Plug-In . SVG Version: 6.00 Build 0)  -->
<svg version="1.1" id="Capa_1" xmlns="http://www.w3.org/2000/svg" xmlns:xlink="http://www.w3.org/1999/xlink" x="0px" y="0px"
	 viewBox="0 0 87.1 87.1" style="enable-background:new 0 0 87.1 87.1;" xml:space="preserve">
<style type="text/css">
	.st0{fill:#FCFCFC;}
</style>
<path d="M87.1,43.5c0,13.8-6.4,26.1-16.5,34.1c-1,0.8-2,1.5-3.1,2.2c-1,0.7-2.1,1.3-3.1,1.9c-0.4,0.2-0.8,0.4-1.3,0.7
	c-5.9,3-12.5,4.6-19.6,4.6c-7.1,0-13.7-1.7-19.6-4.6c-0.4-0.2-0.8-0.4-1.3-0.7c-0.8-0.4-1.5-0.9-2.3-1.3C8.3,72.8,0.1,59.3,0,43.9
	c0-0.1,0-0.3,0-0.4C0,27,9.2,12.7,22.7,5.3C28.9,1.9,36,0,43.5,0c7.5,0,14.6,1.9,20.8,5.3c2.2,1.2,4.3,2.6,6.2,4.1
	C80.6,17.4,87.1,29.7,87.1,43.5z"/>
<path class="st0" d="M67.5,11.5v68.4c-1,0.7-2.1,1.3-3.1,1.9H22.7c-0.8-0.4-1.5-0.9-2.3-1.3V11.5H67.5z"/>
<g>
	<path d="M70.6,10.1v67.6c-1,0.8-2,1.5-3.1,2.2c-1,0.7-2.1,1.3-3.1,1.9c-0.4,0.2-0.8,0.4-1.3,0.7H47.9V52.8h9.5l1.4-11.5H47.9v-7.4
		c0-3.3,0.9-5.6,5.5-5.6l5.8,0V18c-1-0.1-4.5-0.5-8.5-0.5c-8.4,0-14.2,5.4-14.2,15.3v8.5H27v11.5h9.5v29.6H23.9
		c-0.4-0.2-0.8-0.4-1.3-0.7c-0.8-0.4-1.5-0.9-2.3-1.3C8.3,72.8,0.1,59.3,0,43.9C0.1,27.5,9.2,13.3,22.7,6h41.7
		C66.6,7.2,68.6,8.5,70.6,10.1z"/>
</g>
</svg>
