<?xml version="1.0" encoding="utf-8"?>
<!-- Generator: Adobe Illustrator 23.0.2, SVG Export Plug-In . SVG Version: 6.00 Build 0)  -->
<!DOCTYPE svg PUBLIC "-//W3C//DTD SVG 1.1//EN" "http://www.w3.org/Graphics/SVG/1.1/DTD/svg11.dtd" [
	<!ENTITY ns_extend "http://ns.adobe.com/Extensibility/1.0/">
	<!ENTITY ns_ai "http://ns.adobe.com/AdobeIllustrator/10.0/">
	<!ENTITY ns_graphs "http://ns.adobe.com/Graphs/1.0/">
	<!ENTITY ns_vars "http://ns.adobe.com/Variables/1.0/">
	<!ENTITY ns_imrep "http://ns.adobe.com/ImageReplacement/1.0/">
	<!ENTITY ns_sfw "http://ns.adobe.com/SaveForWeb/1.0/">
	<!ENTITY ns_custom "http://ns.adobe.com/GenericCustomNamespace/1.0/">
	<!ENTITY ns_adobe_xpath "http://ns.adobe.com/XPath/1.0/">
]>
<svg version="1.1" id="Layer_1" xmlns:x="&ns_extend;" xmlns:i="&ns_ai;" xmlns:graph="&ns_graphs;"
	 xmlns="http://www.w3.org/2000/svg" xmlns:xlink="http://www.w3.org/1999/xlink" x="0px" y="0px" viewBox="0 0 53.8 64"
	 style="enable-background:new 0 0 53.8 64;" xml:space="preserve">
<style type="text/css">
	.st0{fill:#041E42;}
</style>
<metadata>
	<sfw  xmlns="&ns_sfw;">
		<slices></slices>
		<sliceSourceBounds  bottomLeftOrigin="true" height="64" width="53.8" x="5.1" y="16"></sliceSourceBounds>
	</sfw>
</metadata>
<g>
	<g>
		<g>
			<path class="st0" d="M12.1,31.7c1.1,0.3,2.1-0.4,2.4-1.4l3-12.1l2.2-1.2v23.9c1.7-0.4,3.5-0.9,5.2-1.5v-1.8
				c0-1.2,0.9-2.1,2.1-2.2c1.2,0,2.1,1,2.1,2.2v0.1c0.7-0.3,1.4-0.7,2.1-1c1.1-0.5,2.1-1.1,3.1-1.7V16.9l2.2,1.2l3.1,12.1
				c0.1,0.3,0.2,0.6,0.4,0.8c1.1-0.9,2.2-1.8,3.1-2.7l-3-12.1c-0.1-0.6-0.5-1-1-1.3l-5.6-3c-0.3-0.2-0.6-0.4-1-0.4c0,0,0,0-0.1,0
				h-1.5c-0.4,0-0.8,0.3-0.9,0.7l-2.3,6.7c-0.2,0.6-1.1,0.6-1.3,0l-2.3-6.7c-0.1-0.4-0.5-0.7-0.9-0.7h-1.6h-0.1
				c-0.4,0-0.7,0.2-1,0.4l-5.6,3c-0.5,0.3-0.9,0.8-1,1.3l-3.3,13C10.4,30.3,11,31.4,12.1,31.7z"/>
		</g>
		<g>
			<path class="st0" d="M5.6,52.9c0,1,9.5,1.8,21.2,1.8s21.1-0.9,21.1-1.8c0-0.8-6-1.5-14.4-1.7c0.5-0.5,0.9-1.2,0.9-2v-9.6
				c-0.4,0.2-0.9,0.5-1.3,0.7c-1.3,0.7-2.6,1.3-3.9,1.8v7.2c0,0.7,0.3,1.4,0.8,1.9c-1.1,0-2.1,0-3.2,0c-0.9,0-1.7,0-2.6,0
				c0.5-0.5,0.8-1.1,0.8-1.9v-5.6c-1.8,0.6-3.5,1-5.2,1.4v4.3c0,0.8,0.3,1.5,0.9,1.9C11.9,51.4,5.6,52,5.6,52.9z"/>
		</g>
		<g>
			<path class="st0" d="M5.6,54.9v7.3c0,1,9.5,1.8,21.2,1.8c11.6,0,21.1-0.8,21.1-1.8v-7.3c-2.4,0.9-8,1.5-21.2,1.5S8,55.8,5.6,54.9
				z"/>
		</g>
		<g>
			<ellipse class="st0" cx="27" cy="5.3" rx="5.2" ry="5.3"/>
		</g>
		<g>
			<path class="st0" d="M32.6,39.3c5.7-2.8,10.5-6.4,14.1-10.3c-0.6-0.3-1.2-0.8-1.4-1.5c-3.4,3.7-8.1,7.2-13.6,9.9
				c-12.8,6.6-26.1,7-29.1,1.1c-1.5-3-0.2-7.3,3.5-11.7l-1.3-1.5c-4.4,5.2-5.9,10.3-4,14.1c1.8,3.5,6.1,5.3,11.8,5.3
				C18.4,44.7,25.5,42.9,32.6,39.3z"/>
		</g>
		<g>
			<path class="st0" d="M35.6,10.8c7.2-1,12.5,0.5,14.3,3.9c0.8,1.6,0.7,3.4,0.3,5l1.8,1.1c0.8-2.6,0.8-5-0.3-6.9
				c-2.1-4.3-8.2-6.1-16.3-5C34.9,9,34.5,9.5,34.5,10C34.6,10.5,35.1,10.9,35.6,10.8z"/>
		</g>
		<g>
			<path class="st0" d="M53.7,24.1l-6.5-3.9c-0.2-0.1-0.5,0-0.5,0.3l0.6,6.4c0,0.2,0.2,0.4,0.4,0.3l5.9-2.5
				C53.9,24.6,53.9,24.3,53.7,24.1z"/>
		</g>
		<g>
			<path class="st0" d="M9,27.1c0.2,0.2,0.5,0.1,0.6-0.1l1.4-6.3c0-0.2-0.1-0.4-0.3-0.4l-6.4,0.6c-0.3,0-0.4,0.3-0.2,0.5L9,27.1z"/>
		</g>
	</g>
</g>
</svg>
