<?xml version="1.0" encoding="utf-8"?>
<!-- Generator: Adobe Illustrator 23.0.2, SVG Export Plug-In . SVG Version: 6.00 Build 0)  -->
<!DOCTYPE svg PUBLIC "-//W3C//DTD SVG 1.1//EN" "http://www.w3.org/Graphics/SVG/1.1/DTD/svg11.dtd" [
	<!ENTITY ns_extend "http://ns.adobe.com/Extensibility/1.0/">
	<!ENTITY ns_ai "http://ns.adobe.com/AdobeIllustrator/10.0/">
	<!ENTITY ns_graphs "http://ns.adobe.com/Graphs/1.0/">
	<!ENTITY ns_vars "http://ns.adobe.com/Variables/1.0/">
	<!ENTITY ns_imrep "http://ns.adobe.com/ImageReplacement/1.0/">
	<!ENTITY ns_sfw "http://ns.adobe.com/SaveForWeb/1.0/">
	<!ENTITY ns_custom "http://ns.adobe.com/GenericCustomNamespace/1.0/">
	<!ENTITY ns_adobe_xpath "http://ns.adobe.com/XPath/1.0/">
]>
<svg version="1.1" id="Layer_1" xmlns:x="&ns_extend;" xmlns:i="&ns_ai;" xmlns:graph="&ns_graphs;"
	 xmlns="http://www.w3.org/2000/svg" xmlns:xlink="http://www.w3.org/1999/xlink" x="0px" y="0px" viewBox="0 0 66 61.6"
	 style="enable-background:new 0 0 66 61.6;" xml:space="preserve">
<style type="text/css">
	.st0{fill:#041E42;}
</style>
<metadata>
	<sfw  xmlns="&ns_sfw;">
		<slices></slices>
		<sliceSourceBounds  bottomLeftOrigin="true" height="61.6" width="65" x="0.5" y="18.7"></sliceSourceBounds>
	</sfw>
</metadata>
<g>
	<g>
		<path class="st0" d="M54.2,32c-0.7-0.5-2.2-1.2-4.2-0.9c-2.5,0.5-4.5,2.6-4.8,5.3c0,0.3,0,0.6,0,0.9c0.3,0,4.6,1.3,7.8-1.9
			c0.5-0.5,1.5-0.3,1.7,0.4c0.1,0.3,0.6,1.6,1.3,1.5c0.1,0,0.3,0,2.4,0c0.1-1.4,0-3.5-1.3-4.7C56.6,32.2,55.7,31.7,54.2,32z"/>
	</g>
	<g>
		<path class="st0" d="M57.4,43.4c1.2-0.4,2.1-1.6,2.1-3.1c0-0.3,0-0.7-0.1-1h-3.1c-1.3,0.1-2.2-0.7-2.8-1.6c-2,1.5-4.2,1.8-5.9,1.8
			c-1.2,0-2.1-0.2-2.5-0.3h-0.7c-0.1,0.3-0.2,0.6-0.2,1c0,1.4,0.9,2.7,2.1,3.1C47.2,50.1,56.5,50.1,57.4,43.4z"/>
	</g>
	<g>
		<path class="st0" d="M59,50.3c-0.6-0.1-2-0.5-3-1.2c-2.4,1.6-5.3,1.7-7.6,0.5c0.1,0.6,1.4,9.3,1,11.4h15.1c0.6,0,1-0.4,1-1v-2.9
			C65.5,53.4,62.6,50.5,59,50.3z"/>
	</g>
	<g>
		<path class="st0" d="M9.8,37.3h0.1c0.7,0.1,1.2-1.2,1.3-1.5s0.4-0.6,0.7-0.7c0.3-0.1,0.7,0,1,0.3c3.1,3.1,7.4,2,7.6,1.9
			c0.1,0,0.1,0,0.2,0c0-0.3,0-0.6,0-0.9c-0.5-4.4-5.3-6.9-8.9-4.5c-3.2-0.6-4.4,2-4.2,5.3h2.2V37.3z"/>
	</g>
	<g>
		<path class="st0" d="M21.8,40.3c0-0.3,0-0.7-0.1-1H21c-0.3,0.1-1.3,0.3-2.5,0.3c-1.7,0-3.9-0.3-5.9-1.8c-0.6,0.9-1.5,1.7-2.8,1.6
			H6.6c-0.1,0.3-0.1,0.6-0.1,1c0,1.4,0.9,2.7,2.1,3.1c0.4,2.9,2.7,5.1,5.5,5.1s5.2-2.2,5.6-5.1C20.9,42.9,21.8,41.7,21.8,40.3z"/>
	</g>
	<g>
		<path class="st0" d="M10,49.1c-1,0.7-2.3,1.1-3,1.2c-3.6,0.1-6.5,3.1-6.5,6.8V60c0,0.6,0.4,1,1,1h14.8c-0.3-2,0.9-10.9,1-11.2
			C15.1,50.8,12.3,50.7,10,49.1z"/>
	</g>
	<g>
		<path class="st0" d="M36.5,43.8c0.1,0,0.1,0,0.2,0l6.5-1.2c0.7-0.1,1.1-1,0.6-1.6c0,0-0.6-0.8-1.3-2.5c-0.4-1.1-0.6-2.3-0.5-3.6
			c0.2-5.4-3-9.5-9.1-9.6c-2.8,0-5.1,0.9-6.7,2.6c-3.4,3.6-1.9,7.5-2.7,10.1c-0.6,2-1.5,3-1.5,3c-0.6,0.6-0.2,1.6,0.6,1.7l6.6,0.9
			c1,0.1,1.6-1.2,0.7-1.8c-0.1,0-1.9-1.3-1.4-4.8c1.2-0.3,3.4-1,5-3.4c0.7,1,1.9,2.1,3.5,2.3c0,2.4-0.3,5.5-1.1,6.3
			C35.2,42.7,35.6,43.8,36.5,43.8z"/>
	</g>
	<g>
		<path class="st0" d="M37.6,44.1c-0.4-0.1-0.9,0.1-1.1,0.5c-1.6,3.2-5.7,3.2-7.3,0c-0.2-0.4-0.6-0.6-1.1-0.5
			c-3.6,0.6-8.5,2.6-8.9,6.2c-1.3,9.4-1,10.3-0.9,10.6c0.1,0.4,0.5,0.7,0.9,0.7h27.1c0.4,0,0.8-0.3,1-0.7c0.1-0.3,0.4-1.2-0.9-10.6
			C46,46.7,41.1,44.7,37.6,44.1z M32.9,49.9c0.6,0,1.1,0.5,1.1,1.1s-0.5,1.1-1.1,1.1s-1.1-0.5-1.1-1.1
			C31.8,50.4,32.3,49.9,32.9,49.9z M32.9,53.2c0.6,0,1.1,0.5,1.1,1.1s-0.5,1.1-1.1,1.1s-1.1-0.5-1.1-1.1
			C31.8,53.7,32.3,53.2,32.9,53.2z M32.9,59c-0.7,0-1.3-0.6-1.3-1.3s0.6-1.3,1.3-1.3s1.3,0.6,1.3,1.3C34.1,58.4,33.6,59,32.9,59z"/>
	</g>
	<g>
		<path class="st0" d="M11.8,14.4L10.4,18c-0.3,0.9,0.6,1.7,1.4,1.2l5.2-2.9c0.7,0.1,1.4,0.2,2.2,0.2c-1.8-1.9-2.8-4.2-2.8-6.7
			c0-3.1,1.6-5.9,4.3-8c-0.5,0-0.9,0-1.4,0c-5.9,0-10.7,3.3-10.7,7.4C8.6,11.2,9.8,13.1,11.8,14.4z"/>
	</g>
	<g>
		<path class="st0" d="M49.2,9.9c0,2.4-1,4.8-2.8,6.7c1.1,0.1,2.3,0,3.4-0.1l5.3,2.9c0.8,0.4,1.7-0.4,1.4-1.2l-1.3-3.6
			c2-1.4,3.1-3.2,3.1-5.2c0-4.1-4.8-7.4-10.7-7.4c-0.8,0-1.7,0.1-2.5,0.2C47.6,4.1,49.2,6.9,49.2,9.9z"/>
	</g>
	<g>
		<path class="st0" d="M32.8,19.7c1,0,2.1-0.1,3.1-0.2l5.1,3.9c0.6,0.5,1.6,0.1,1.6-0.8v-5.5c2.9-1.8,4.6-4.4,4.6-7.2
			c0-5.4-6.5-9.9-14.4-9.9S18.4,4.4,18.4,9.9C18.4,15.4,24.7,19.7,32.8,19.7z"/>
	</g>
</g>
</svg>
