<?xml version="1.0" encoding="utf-8"?>
<!-- Generator: Adobe Illustrator 23.0.2, SVG Export Plug-In . SVG Version: 6.00 Build 0)  -->
<!DOCTYPE svg PUBLIC "-//W3C//DTD SVG 1.1//EN" "http://www.w3.org/Graphics/SVG/1.1/DTD/svg11.dtd" [
	<!ENTITY ns_extend "http://ns.adobe.com/Extensibility/1.0/">
	<!ENTITY ns_ai "http://ns.adobe.com/AdobeIllustrator/10.0/">
	<!ENTITY ns_graphs "http://ns.adobe.com/Graphs/1.0/">
	<!ENTITY ns_vars "http://ns.adobe.com/Variables/1.0/">
	<!ENTITY ns_imrep "http://ns.adobe.com/ImageReplacement/1.0/">
	<!ENTITY ns_sfw "http://ns.adobe.com/SaveForWeb/1.0/">
	<!ENTITY ns_custom "http://ns.adobe.com/GenericCustomNamespace/1.0/">
	<!ENTITY ns_adobe_xpath "http://ns.adobe.com/XPath/1.0/">
]>
<svg version="1.1" id="Layer_1" xmlns:x="&ns_extend;" xmlns:i="&ns_ai;" xmlns:graph="&ns_graphs;"
	 xmlns="http://www.w3.org/2000/svg" xmlns:xlink="http://www.w3.org/1999/xlink" x="0px" y="0px" viewBox="0 0 115.7 127.9"
	 style="enable-background:new 0 0 115.7 127.9;" xml:space="preserve">
<style type="text/css">
	.st0{fill:#041E42;}
</style>
<metadata>
	<sfw  xmlns="&ns_sfw;">
		<slices></slices>
		<sliceSourceBounds  bottomLeftOrigin="true" height="128" width="116" x="6" y="32"></sliceSourceBounds>
	</sfw>
</metadata>
<path class="st0" d="M113.3,67.3h-2.3c-3.8,0-14.7,0.1-17.2,0.1c-3-1.9-5.9-3.7-8.8-5.3c-3.4-2-7-3.7-10.7-5.1
	c-2.1-0.8-4.2-1.4-6.4-1.9l-0.6-0.1c-0.7-0.1-1.4,0-2.1,0.2h-0.1c-0.2,0.1-5.7,2.3-7.3,3.2l-1.4,0.7c-2.9-1-9.3-2-11.3-1.8
	s-9.6,2.4-11.2,2.9c-4,1.1-7.7,3.3-10.6,6.2c-2.9,0.1-13.5,0.1-20.3,0.1c-1.5-0.1-2.9,1.1-3,2.6c0,0.1,0,0.3,0,0.4l0,34.1
	c0,0.8,0.3,1.6,0.8,2.2c0.6,0.6,1.4,0.8,2.3,0.8c0.9,0,11.9-0.1,18.1-0.1l0,0c-0.8,1.2-1.2,2.7-1.1,4.2c0.6,3.7,3.7,6.5,7.4,6.7
	c0.2,0,0.5,0,0.7,0c1,2.5,3.4,4.3,6.2,4.5c1,0,2-0.3,2.9-0.8c1.3,2.3,3.5,3.8,6.1,4.2c1.2,0.1,2.4-0.1,3.4-0.6
	c0.4,0.7,1,1.2,1.6,1.7c1.7,1,3.6,1.5,5.6,1.6c0.3,0,0.6,0,0.9-0.1c1-0.1,1.8-0.8,3.7-2.6L59,125c0.5,0,1.2,0.1,1.6,0.1
	c2.4,0.8,5.1,0.2,7-1.5c2.2,0.1,5.2-0.4,6.8-3.5c3.3,0.5,6-0.6,7.7-3.1c6.5-0.8,7.5-4.9,7.8-6.5l0,0c0.8-0.7,1.8-1.6,2.6-2.5l1-1
	l19,0.2h0.1c0.3,0,0.5,0,0.8,0c1.3-0.1,2.3-1.1,2.5-2.4c0-0.2,0.1-34.5,0.1-35C115.9,68.5,114.7,67.4,113.3,67.3z M28.1,113.6
	L28.1,113.6h-0.2c-1.9-0.1-3.5-1.5-3.9-3.4c0.1-0.6,0.4-1.2,0.7-1.8l1.8-1.6c0.2-0.1,0.3-0.3,0.5-0.4c1.6-1.5,3.4-3,4.2-3.7
	c0.9,0,1.8,0.4,2.2,1.2c0.3,0.4,0.4,0.8,0.5,1.3L28.1,113.6z M36.5,117.1L36.5,117.1c-0.6,0.4-1.2,0.7-1.8,0.9
	c-1.5-0.1-2.7-1.1-3-2.6l6.8-9.7c0.4-0.4,5.8-6.4,6.3-6.9c0.7-0.6,1.6-0.8,2.5-0.7c1,0.1,2,0.7,2.5,1.6c0.1,0.1,0.1,0.2,0.1,0.3
	L36.5,117.1z M46.4,120.6c-0.7,0.4-1.5,0.7-2.3,0.8l0,0c-1.6-0.2-2.9-1.2-3.5-2.6l-0.1-0.3c0,0,15.3-19.1,15.5-19.3
	c0.5-0.6,1.3-0.9,2.1-0.9c1.1,0,2.2,0.6,2.9,1.5c0.7,0.8-0.1,2.7-0.4,3.4L46.4,120.6z M62.4,121.3l2.4-2.8c0,0.8,0,1.6,0,2.1
	C64.1,121.2,63.2,121.5,62.4,121.3z M66.2,110.3c-0.3,0.7-0.6,1.3-1.1,1.8l0,0c-4.6,5.3-8.9,10-9.3,10.4s-1.2,1.2-1.6,1.5
	c-1.2,0-2.4-0.3-3.5-0.9c-0.2-0.2-0.4-0.4-0.5-0.7l12.8-15.9h0.4c0.2,0,0.5,0,0.6,0c0.8,0.1,1.5,0.6,1.9,1.3
	C66.4,108.6,66.5,109.5,66.2,110.3L66.2,110.3z M68.9,119.6c0-1.2-0.1-2.6-0.1-3.9c0-0.6-0.1-1.2-0.1-1.6c0.6-0.8,1.1-1.6,1.4-2.6
	c1.1-3.7-1-7.6-4.7-8.7c-0.1,0-0.3-0.1-0.4-0.1c0.4-1.4,0.3-2.8-0.2-4.2c2.3,2.4,4.5,4.8,5.2,5.6c0.6,4.1,1,8.3,1,12.5v1.2
	C70.7,118.8,69.9,119.5,68.9,119.6L68.9,119.6z M103.9,103.2l-11-0.2c-0.9,0-1.3,0.3-3.1,2.1l-0.2-4.4c-0.2-5.6-0.3-8.2-0.4-8.5
	c-0.1-0.9-0.1-1.1-12.7-13.9c-0.8-0.8-2-0.8-2.8,0c-0.8,0.8-0.8,2,0,2.8c1.6,1.7,9.7,10,11.6,12.1c0.1,1.4,0.7,16.4,0.7,16.6l0,0
	c-0.3,1.1-0.7,2.5-3.2,3.1c-0.2-2.3-1-14.9-1-15.1c-0.1-1-0.1-1-11.3-12L68.8,84c-0.8-0.8-2-0.8-2.8,0c-0.8,0.8-0.8,2,0,2.8
	C66,87,76.2,97,77.8,98.7c0.1,0.9,1,15.2,1.1,15.8c-0.4,0.7-1.3,2.1-3.9,1.6c0-4.4-0.4-8.8-1.1-13.1c0-0.7-0.3-1.1-4.3-5.4
	C68,96,65,93,63,91.1c-0.8-0.7-2.1-0.7-2.8,0.2s-0.7,2.1,0.2,2.8l0,0c0.4,0.3,0.8,0.7,1.2,1.1c-1-0.5-2.1-0.8-3.3-0.9
	c-2-0.1-3.9,0.7-5.2,2.2l-0.3,0.4c-1.2-1.5-2.8-2.4-4.6-2.7c-2.1-0.3-4.2,0.2-5.8,1.6C42,96,42,96,37,101.5l-0.2,0.2l-0.1-0.1
	c-1.4-2.2-4-3.3-6.6-2.8c-0.4,0.1-0.8,0.1-5,3.8c-1.7-0.1-5.3-0.2-13.1,0v-32c13,0,13.1-0.1,13.7-0.8c2.5-2.7,5.8-4.7,9.4-5.7
	c4.3-1.2,9.5-2.6,10.5-2.7c2,0,3.9,0.3,5.8,0.7l-3.7,2.1c-0.7,0.4-1.3,1-1.5,1.8c-0.5,1.5-1.1,3-1.6,4.5c-0.9,2.4-1.7,4.8-2.6,7.3
	c0,0.1-1.7,5.5-1.3,7.1c0.4,1.7,1.6,3.2,3.4,3.7c1,0.3,2,0.5,3,0.5c1.8,0,3.6-0.5,5.2-1.5c2-1.2,3.8-2.8,5.3-4.6
	c2.1-2.6,3.9-5.4,5.3-8.4c0.4,0.1,4.3,1,5.8,1.4c1.1,0.3,2.2-0.3,2.5-1.3c0.3-1.1-0.3-2.2-1.3-2.5c0,0-0.1,0-0.1,0
	c-1.5-0.4-3-0.8-4.6-1.2c-0.8-0.2-1.7-0.4-2.6-0.6c-1.1-0.3-2.3,0.3-2.8,1.4c-1.3,3.1-3.1,6.1-5.3,8.7c-1.2,1.5-2.6,2.8-4.2,3.8
	c-1.4,1-3.2,1.2-4.8,0.7c-0.5-0.2-0.7-0.4-0.7-0.6c0.3-1.7,0.6-3.4,1.2-5.1c0.8-2.4,1.7-4.8,2.6-7.3c0.5-1.4,1-2.9,1.5-4.3
	c1.9-1.1,13.1-7.2,14.2-7.7c0.9-0.4,2-0.7,3-0.8c2,0.4,3.9,0.9,5.8,1.7c3.5,1.4,6.9,3,10.2,4.9c2.9,1.6,6,3.5,9,5.4
	c0.5,0.3,0.6,0.4,11.7,0.3C103.9,74.2,103.9,102.2,103.9,103.2L103.9,103.2z"/>
<path class="st0" d="M73.6,28.6c0.2,0,0.4-0.1,0.6-0.2c1.1-0.6,1.7-1.9,1.5-3.2v-0.4C75.3,19.6,74.3,7.4,58,8.2
	c-7,0.3-10.5,1.7-11.3,4.3c-0.1,0.4-0.2,0.7-0.2,1.1c-0.4,0.1-0.7,0.3-1,0.4c-1.6,1-2.5,2.8-2.7,5.5c-0.2,1.9-0.3,6.2,2,7.9
	c0,0.1,0,0.3,0,0.4c0,9.2,2.5,15,7.5,17.5l0,0l-0.6,3.1l-3.9,1.1l-0.2-3.9c-0.1-0.9-0.7-1.6-1.6-1.8l-12.6-3.5L32.7,37l0,0
	c3.5-1.9,5.7-5.4,6.6-10.6c-0.6-2-0.9-4-0.7-6.1c0-0.4,0-0.8,0.1-1.2s0-0.5,0.1-0.7l0,0c0.1-2.3,1.1-4.6,2.6-6.3
	C40.2,6.4,36.7-0.6,24.3,0c-7,0.4-10.5,1.7-11.2,4.3c-0.1,0.4-0.2,0.7-0.2,1.1c-0.4,0.1-0.7,0.3-1,0.4c-1.6,1-2.5,2.8-2.7,5.5
	c-0.2,1.9-0.3,6.2,2,7.9c0,0.1,0,0.3,0,0.4c0,9.2,2.5,15,7.5,17.5l0,0L18,40.3L5.3,43.8c-0.8,0.2-1.4,1-1.5,1.8L3.1,62.6l18.6-0.1
	c0.4-0.4,0.9-0.8,1.3-1.1c-0.2-5.9-0.8-11.7-1.8-17.5l1.1-5.5l0,0c1,0.2,2.1,0.3,3.1,0.3c1.1,0,2.3-0.1,3.4-0.3l0,0l1.1,5.4
	c-1.1,4.8-1.7,9.6-2,14.5c0.2-0.1,0.4-0.1,0.6-0.2c1.4-0.7,2.9-1.2,4.5-1.7c2.8-0.8,9.6-2.7,11.7-2.9c0.4-0.1,0.9-0.1,1.3-0.1
	c2.7,0.1,5.4,0.5,8.1,1.1h0.3c0.4,0.1,0.9,0.2,1.3,0.3c-0.2-1-0.4-2-0.6-2.9l1.1-5.3l0,0c2.1,0.4,4.3,0.4,6.5,0l1,5.1c0,0,0,0,0,0
	l0,0l0.3-0.1c1.2-0.4,2.4-0.6,3.7-0.5c0.4,0,0.7,0.1,1.1,0.2c0.8,0.1,1.5,0.3,2.3,0.5c0.5,0.1,1.1,0.3,1.6,0.5l0.5,0.2
	c0.6,0.2,1.1,0.4,1.7,0.6l0,0l1.1,0.4c1.8,0.7,3.6,1.4,5.4,2.3l0-1.9c-0.1-0.8-0.6-1.6-1.5-1.8L75,50.7l0,0l0.2-3.3l9.3-2.6l0.4-0.1
	c0.2,0.8,0.4,1.7,0.6,2.6c0.6,3.7,1.1,7.5,1.3,11.2c0.2,0.1,0.3,0.2,0.4,0.2c1.2,0.7,2.5,1.4,3.7,2.1c-0.2-5.7-0.9-11.4-2.1-17
	l1.1-5.3l0,0c2.1,0.4,4.3,0.4,6.5,0l0,0l1.1,5.5c-1,4.8-1.6,12.7-1.9,19.6h0.3h3.8l10.7-0.1h0.5h2.2h0.3c0.6,0,1.2,0.1,1.8,0.3
	c0.2,0,0.3,0,0.5,0.1L115,45.8c0-0.9-0.6-1.6-1.5-1.8l-12.7-3.5l-0.7-3.2l0,0c4.7-2.5,7-8,7.2-16.5c0.2,0,0.4-0.1,0.6-0.2
	c1.1-0.6,1.7-1.9,1.5-3.2v-0.4C109,11.5,108-0.8,91.7,0c-7,0.4-10.5,1.7-11.3,4.3c-0.1,0.4-0.2,0.7-0.2,1.1c-0.4,0.1-0.7,0.3-1,0.4
	c-1.6,1-2.5,2.8-2.7,5.5c0,0.3-0.1,0.6-0.1,0.9c1,1.7,1.7,3.4,2.2,5.3c0.1,0.2,0.1,0.4,0.2,0.6l0.1,0.4c0,0.2,0.1,0.4,0.1,0.6
	l0.1,0.4c0.3,1.7,0.5,3.3,0.6,5v0.4c0.1,1.1,0,2.2-0.4,3.3c1.1,4.4,3.3,7.4,6.5,9l-0.6,3.1l-12.7,3.6c-0.8,0.2-1.4,1-1.5,1.8
	L71,49.5l-3.9-1.1l-0.7-3.3C71.1,42.7,73.4,37.2,73.6,28.6z M25.5,34.6c-3.4,0-10.3,0-10.4-15c0-0.1,0-0.2,0-0.3
	c0.6-0.3,1.2-0.7,1.8-1.2c1.6-1.4,3-3,4.1-4.9l0.1,0.1c2.6,3,8.4,5.1,11,3.4c0.2-0.1,0.3-0.2,0.5-0.4c1.2,1.1,2.3,2,3.3,2.7
	c0,0.2,0,0.3,0,0.5C35.9,34.6,28.9,34.6,25.5,34.6z M82.5,19.6c0-0.1,0-0.2,0-0.3c0.6-0.3,1.2-0.7,1.8-1.2c1.6-1.4,3-3,4.2-4.9
	l0.1,0.1c2.7,3,8.4,5.1,11,3.4c0.2-0.1,0.3-0.2,0.5-0.4c1.2,1.1,2.3,2,3.3,2.7c0,0.2,0,0.3,0,0.5c-0.1,15-7,15-10.4,15
	S82.6,34.6,82.5,19.6L82.5,19.6z M59.2,42.8c-3.4,0-10.3,0-10.4-15c0-0.1,0-0.2,0-0.3c0.6-0.3,1.2-0.7,1.8-1.2c1.6-1.4,3-3,4.2-4.9
	l0.1,0.1c2.7,3,8.4,5.1,11,3.4c0.2-0.1,0.3-0.2,0.5-0.4c1.2,1.1,2.3,2,3.3,2.7c0,0.2,0,0.3,0,0.5C69.6,42.8,62.6,42.8,59.2,42.8z"/>
</svg>
