<?xml version="1.0" encoding="utf-8"?>
<!-- Generator: Adobe Illustrator 23.0.1, SVG Export Plug-In . SVG Version: 6.00 Build 0)  -->
<svg version="1.1" id="Layer_1" xmlns="http://www.w3.org/2000/svg" xmlns:xlink="http://www.w3.org/1999/xlink" x="0px" y="0px"
	 viewBox="0 0 120.7 120.7" style="enable-background:new 0 0 120.7 120.7;" xml:space="preserve">
<style type="text/css">
	.st0{fill:#0177C1;}
	.st1{fill:#FFFFFF;}
</style>
<path class="st0" d="M120.7,60.3c0,33.3-27,60.4-60.3,60.4c-18.1,0-34.3-7.9-45.3-20.5c-7.1-7.9-12-17.7-14-28.4
	C0.4,68.1,0,64.3,0,60.3C0,27,27,0,60.3,0C79.7,0,97,9.2,108,23.4c6.4,8.3,10.8,18.3,12.2,29.2C120.5,55.1,120.7,57.7,120.7,60.3z"
	/>
<g>
	<path class="st1" d="M68.8,92.3l1.2,3.3c-5.4,3.7-9.7,5.8-9.7,5.8s-4.7-2.3-10.5-6.4l1.1-2.8L52,89l2.2-6l1-2.8l3.3-9.6
		c0,0,1.1-3.2,1.1-3.2l0.2-0.3c0,0,0.1-0.1,0.1-0.2l0.1-0.1l0,0c0,0,0.1,0,0.1,0l0.1,0l0.1,0.1l0.1,0.3l0.3,0.9l0.6,1.8l2.3,6.9
		l2,6.1l0,0.1L68.8,92.3z"/>
	<path class="st1" d="M93.7,34.7v27.8c0,9.2-5.6,17.3-12.2,23.8l-2-3.4l-0.7-1.2l-3.1-6l-2.6-5.3l-0.3-0.7l-1.7-4.1l-1.7-4.8
		l-1.6-4.7l-1.7-5.3l-1.6-5.6l-1-3.7l-0.5-1.8L63,39.4l-1.6-5.8l-0.9-3.1l-1.8,5.8l-0.9,3.1l-0.6,2.1l-0.9,3l-2,6.2l-2.3,6.9l-2,5.7
		l-2.2,5.4L47.6,69l-2.3,5l-2.8,5.5l-2.1,3.6l-0.5,0.8l-0.1,0.2l-1,1.7c0,0,0,0,0,0C32.3,79.4,27,71.4,27,62.5V34.7l33.3-11.1
		L93.7,34.7z"/>
</g>
</svg>
