<?xml version="1.0" encoding="utf-8"?>
<!-- Generator: Adobe Illustrator 23.0.1, SVG Export Plug-In . SVG Version: 6.00 Build 0)  -->
<svg version="1.1" id="Capa_1" xmlns="http://www.w3.org/2000/svg" xmlns:xlink="http://www.w3.org/1999/xlink" x="0px" y="0px"
	 viewBox="0 0 486.4 486.4" style="enable-background:new 0 0 486.4 486.4;" xml:space="preserve">
<style type="text/css">
	.st0{fill:#FEFDFF;}
</style>
<path d="M486.4,243.2c0,9.1-0.5,18-1.5,26.8c-7.3,66.2-41.1,124.4-90.6,163.7c-5.5,4.4-11.2,8.5-17.1,12.4
	c-5.7,3.8-11.6,7.3-17.6,10.6c-2.3,1.3-4.6,2.5-7,3.7c-32.9,16.6-70,25.9-109.4,25.9s-76.5-9.3-109.4-25.9c-2.3-1.2-4.7-2.4-7-3.7
	c-4.2-2.3-8.5-4.8-12.6-7.4c-68-42.6-113.4-117.9-114.1-204C0,244.7,0,243.9,0,243.2c0-59.9,21.6-114.7,57.5-157
	c11.3-13.4,24.1-25.6,38.1-36.3c9.8-7.5,20.2-14.3,31.2-20.3C161.4,10.7,201,0,243.2,0c42.2,0,81.8,10.7,116.4,29.6
	c10.9,6,21.4,12.8,31.2,20.3c1.2,0.9,2.4,1.8,3.5,2.7c3.3,2.6,6.5,5.3,9.7,8.1c44.2,39,74.1,93.9,80.9,155.7
	C485.9,225.2,486.4,234.2,486.4,243.2z"/>
<g>
	<g>
		<path class="st0" d="M246.7,89.4c-79.8,0-144.5,59.9-144.5,133.8c0,42.1,21,79.7,53.8,104.2v51l49.2-27c13.1,3.6,27,5.6,41.5,5.6
			c79.8,0,144.5-59.9,144.5-133.8S326.5,89.4,246.7,89.4z M261,269.5l-36.8-39.3l-71.8,39.3l79-83.8l37.7,39.3l70.9-39.3L261,269.5z
			"/>
	</g>
</g>
</svg>
