<?xml version="1.0" encoding="utf-8"?>
<!-- Generator: Adobe Illustrator 23.0.2, SVG Export Plug-In . SVG Version: 6.00 Build 0)  -->
<!DOCTYPE svg PUBLIC "-//W3C//DTD SVG 1.1//EN" "http://www.w3.org/Graphics/SVG/1.1/DTD/svg11.dtd" [
	<!ENTITY ns_extend "http://ns.adobe.com/Extensibility/1.0/">
	<!ENTITY ns_ai "http://ns.adobe.com/AdobeIllustrator/10.0/">
	<!ENTITY ns_graphs "http://ns.adobe.com/Graphs/1.0/">
	<!ENTITY ns_vars "http://ns.adobe.com/Variables/1.0/">
	<!ENTITY ns_imrep "http://ns.adobe.com/ImageReplacement/1.0/">
	<!ENTITY ns_sfw "http://ns.adobe.com/SaveForWeb/1.0/">
	<!ENTITY ns_custom "http://ns.adobe.com/GenericCustomNamespace/1.0/">
	<!ENTITY ns_adobe_xpath "http://ns.adobe.com/XPath/1.0/">
]>
<svg version="1.1" id="Layer_1" xmlns:x="&ns_extend;" xmlns:i="&ns_ai;" xmlns:graph="&ns_graphs;"
	 xmlns="http://www.w3.org/2000/svg" xmlns:xlink="http://www.w3.org/1999/xlink" x="0px" y="0px" viewBox="0 0 48 47.6"
	 style="enable-background:new 0 0 48 47.6;" xml:space="preserve">
<style type="text/css">
	.st0{fill:#041E42;}
</style>
<metadata>
	<sfw  xmlns="&ns_sfw;">
		<slices></slices>
		<sliceSourceBounds  bottomLeftOrigin="true" height="47.5" width="47" x="0.5" y="12.5"></sliceSourceBounds>
	</sfw>
</metadata>
<g>
	<path class="st0" d="M30.7,0.1c-1-0.2-2.1-0.1-3.1,0.2c-1.9,0.5-3.1,2.1-3.6,4c0,0,0,0,0,0c-0.1,0.4-0.1,0.8-0.1,1.2
		c0,3.3,2.3,8.2,5.7,8.2c3.4,0,5.7-5,5.7-8.3c0-1.7-0.8-3.4-2.1-4.4C32.4,0.5,31.6,0.2,30.7,0.1z"/>
	<g>
		<path class="st0" d="M13.8,33.8c-0.9,0.3-1.8,0.7-2.4,1.4c-0.7,0.7-1.2,1.5-1.4,2.4l-0.5,3.6L9,44.9c-0.1,0.4,0.1,0.8,0.4,1.1
			c0.3,0.3,0.7,0.5,1.1,0.5h7.9h7.9c0.4,0,0.8-0.2,1.1-0.5c0.3-0.3,0.4-0.7,0.4-1.1l-0.5-3.6l-0.5-3.6c-0.3-0.9-0.8-1.8-1.4-2.4
			c-0.7-0.7-1.5-1.1-2.4-1.4h-9.2V33.8z"/>
		<path class="st0" d="M26.3,47.5H10.4c-0.7,0-1.4-0.3-1.8-0.8c-0.5-0.5-0.7-1.2-0.6-1.9l1-7.4c0.3-1.1,0.9-2.1,1.7-2.9
			c0.8-0.8,1.8-1.3,2.9-1.6h0.3h9.5c1.1,0.3,2.1,0.9,2.9,1.6c0.8,0.8,1.4,1.8,1.7,2.9v0.1l1,7.2c0.1,0.7-0.1,1.4-0.6,1.9
			C27.7,47.2,27,47.5,26.3,47.5z M10.9,37.8L10,45c0,0.2,0.1,0.3,0.1,0.3c0.1,0.1,0.2,0.2,0.4,0.2h15.9c0.2,0,0.3-0.1,0.4-0.2
			c0.1-0.1,0.1-0.2,0.1-0.3l-1-7.2c-0.2-0.7-0.6-1.4-1.1-1.9s-1.2-0.9-1.9-1.1H14c-0.7,0.2-1.3,0.6-1.9,1.1
			C11.5,36.5,11.1,37.1,10.9,37.8z"/>
	</g>
	<g>
		<path class="st0" d="M19.6,19.5h-2.4c-1.9,0-3.5,1.8-3.5,4.1l0,0c0,3.1,2.1,7.2,4.7,7.2s4.7-4.1,4.7-7.2l0,0
			C23,21.3,21.5,19.5,19.6,19.5z"/>
		<path class="st0" d="M18.4,31.9c-3.4,0-5.7-5-5.7-8.2c0-1.8,0.9-3.6,2.3-4.6c1.6-1.2,3.9-1.4,5.7-0.5c1.8,0.8,3.2,2.7,3.3,4.7
			c0,0.1,0,0.3,0,0.4C24.1,26.9,21.8,31.9,18.4,31.9z M17.2,20.5c-1.4,0-2.5,1.4-2.5,3.1c0,2.7,1.8,6.3,3.7,6.3
			c1.9,0,3.7-3.6,3.7-6.2c0-1.7-1.1-3.1-2.5-3.1h-2.4V20.5z"/>
	</g>
	<g>
		<path class="st0" d="M30.6,18.1v-1.4c0-0.6-0.4-1-1-1s-1,0.4-1,1v1.4H30.6z"/>
		<path class="st0" d="M40,26.7l-1-7.2v-0.1c-0.3-1.1-0.9-2.1-1.7-2.9c-0.8-0.8-1.8-1.3-2.9-1.6l-0.6-0.2l-3.3,3.5v6.3
			c0,0.6-0.4,1-1,1s-1-0.4-1-1v-6.3l-3.3-3.5l-0.6,0.2c-1.1,0.3-2.1,0.9-2.9,1.6c-0.1,0.1-0.3,0.3-0.4,0.4c2.6,0.9,4.5,3.6,4.5,6.7
			c0,1.9-0.5,4-1.5,5.9h13c0.7,0,1.4-0.3,1.8-0.8C39.9,28.1,40.1,27.4,40,26.7z"/>
	</g>
	<path class="st0" d="M7.1,36.9c0.4-1.4,1.1-2.7,2.2-3.8c1-1,2.3-1.8,3.7-2.1h0.1c-0.6-0.8-1.1-1.8-1.5-2.8L0.8,37.5
		c-0.3,0.3-0.4,0.7-0.3,1.1C0.6,39,1,39.2,1.4,39.2h5.2L7.1,36.9z"/>
	<path class="st0" d="M47.4,28.1c-0.1-0.4-0.5-0.6-0.9-0.6H42c-0.1,0.9-0.5,1.8-1.1,2.5c-0.8,0.9-2.1,1.5-3.3,1.5H25.2
		c0.9,0.4,1.7,0.9,2.3,1.6c1.1,1,1.8,2.4,2.2,3.8l0.1,0.3l0.3,2.1h5.2c0.2,0,0.5-0.1,0.7-0.2l11.3-9.8
		C47.5,28.9,47.6,28.5,47.4,28.1z"/>
</g>
</svg>
