<?xml version="1.0" encoding="utf-8"?>
<!-- Generator: Adobe Illustrator 23.0.1, SVG Export Plug-In . SVG Version: 6.00 Build 0)  -->
<svg version="1.1" id="Capa_1" xmlns="http://www.w3.org/2000/svg" xmlns:xlink="http://www.w3.org/1999/xlink" x="0px" y="0px"
	 viewBox="0 0 486.4 486.4" style="enable-background:new 0 0 486.4 486.4;" xml:space="preserve">
<style type="text/css">
	.st0{fill-rule:evenodd;clip-rule:evenodd;fill:#FFFFFF;}
</style>
<path d="M486.4,243.2c0,9.1-0.5,18-1.5,26.8c-7.3,66.2-41.1,124.4-90.6,163.7c-5.5,4.4-11.2,8.5-17.1,12.4
	c-5.7,3.8-11.6,7.3-17.6,10.6c-2.3,1.3-4.6,2.5-7,3.7c-32.9,16.6-70,25.9-109.4,25.9s-76.5-9.3-109.4-25.9c-2.3-1.2-4.7-2.4-7-3.7
	c-4.2-2.3-8.5-4.8-12.6-7.4c-68-42.6-113.4-117.9-114.1-204C0,244.7,0,243.9,0,243.2c0-59.9,21.6-114.7,57.5-157
	c11.3-13.4,24.1-25.6,38.1-36.3c9.8-7.5,20.2-14.3,31.2-20.3C161.4,10.7,201,0,243.2,0c42.2,0,81.8,10.7,116.4,29.6
	c10.9,6,21.4,12.8,31.2,20.3c1.2,0.9,2.4,1.8,3.5,2.7c3.3,2.6,6.5,5.3,9.7,8.1c44.2,39,74.1,93.9,80.9,155.7
	C485.9,225.2,486.4,234.2,486.4,243.2z"/>
<path id="telegram-1" class="st0" d="M291.5,351.8c3.7,2.6,8.5,3.3,12.8,1.7c4.3-1.6,7.4-5.3,8.4-9.7c10-47.1,34.3-166.4,43.5-209.2
	c0.7-3.2-0.5-6.6-3-8.7c-2.5-2.2-6.1-2.8-9.2-1.6c-48.4,17.9-197.3,73.8-258.2,96.3c-3.9,1.4-6.4,5.1-6.3,9.2
	c0.1,4.1,2.9,7.6,6.8,8.8c27.3,8.2,63.2,19.5,63.2,19.5s16.8,50.6,25.5,76.3c1.1,3.2,3.6,5.8,7,6.6c3.3,0.9,6.9,0,9.4-2.4
	c14-13.2,35.7-33.7,35.7-33.7S268.1,335.2,291.5,351.8z M164.4,251.7l19.4,63.9l4.3-40.5c0,0,74.8-67.5,117.5-106
	c1.2-1.1,1.4-3,0.4-4.3c-1-1.3-2.9-1.6-4.3-0.7C252.2,195.6,164.4,251.7,164.4,251.7z"/>
</svg>
