<?xml version="1.0" encoding="utf-8"?>
<!-- Generator: Adobe Illustrator 23.0.2, SVG Export Plug-In . SVG Version: 6.00 Build 0)  -->
<!DOCTYPE svg PUBLIC "-//W3C//DTD SVG 1.1//EN" "http://www.w3.org/Graphics/SVG/1.1/DTD/svg11.dtd" [
	<!ENTITY ns_extend "http://ns.adobe.com/Extensibility/1.0/">
	<!ENTITY ns_ai "http://ns.adobe.com/AdobeIllustrator/10.0/">
	<!ENTITY ns_graphs "http://ns.adobe.com/Graphs/1.0/">
	<!ENTITY ns_vars "http://ns.adobe.com/Variables/1.0/">
	<!ENTITY ns_imrep "http://ns.adobe.com/ImageReplacement/1.0/">
	<!ENTITY ns_sfw "http://ns.adobe.com/SaveForWeb/1.0/">
	<!ENTITY ns_custom "http://ns.adobe.com/GenericCustomNamespace/1.0/">
	<!ENTITY ns_adobe_xpath "http://ns.adobe.com/XPath/1.0/">
]>
<svg version="1.1" id="Layer_1" xmlns:x="&ns_extend;" xmlns:i="&ns_ai;" xmlns:graph="&ns_graphs;"
	 xmlns="http://www.w3.org/2000/svg" xmlns:xlink="http://www.w3.org/1999/xlink" x="0px" y="0px" viewBox="0 0 60.8 67.3"
	 style="enable-background:new 0 0 60.8 67.3;" xml:space="preserve">
<style type="text/css">
	.st0{fill:#041E42;}
</style>
<metadata>
	<sfw  xmlns="&ns_sfw;">
		<slices></slices>
		<sliceSourceBounds  bottomLeftOrigin="true" height="67.3" width="60.8" x="22.2" y="36.7"></sliceSourceBounds>
	</sfw>
</metadata>
<path class="st0" d="M37.6,55.2l3.1,3.7L53,48.6L42.8,36.6c-0.8-0.9-1.9-1.5-3.2-1.7H17.2c-0.2,0-0.4,0-0.6-0.1h-0.3
	c-2.1-0.2-3.9,1.4-4.1,3.4c-0.2,2.1,1.4,3.9,3.4,4.1l16,1.4l0,0c0.4,0,0.8,0.4,0.7,0.8c0,0.4-0.4,0.8-0.8,0.7l0,0l-16-1.3
	c-2.9-0.3-5.1-2.9-4.8-5.8c0.2-2.1,1.6-3.8,3.5-4.5L14,33.4l-5.5-6.6c-1.6-2.1-4.6-2.4-6.6-0.8s-2.4,4.6-0.8,6.6
	c0.1,0.1,0.2,0.2,0.3,0.3l12.2,16c0.8,1,2,1.6,3.2,1.7l17.7,3.1C35.6,53.7,36.8,54.3,37.6,55.2z"/>
<path class="st0" d="M41.9,60.4l12.6-10.7c1.1-0.9,2.7-0.8,3.7,0.3l2,2.3c0.9,1.1,0.8,2.7-0.3,3.7L47.2,66.7
	c-1.1,0.9-2.7,0.8-3.7-0.3l-2-2.3C40.7,63,40.8,61.3,41.9,60.4z"/>
<path class="st0" d="M35.8,28.7c-2.9,0.8-6,1.2-9,1.2v3.2c3,0,6.1-0.4,9-1.2V28.7z"/>
<path class="st0" d="M25.9,29.9c-3,0-5.9-0.4-8.8-1.1v3.2c2.9,0.8,5.8,1.2,8.8,1.2V29.9L25.9,29.9z"/>
<path class="st0" d="M15.7,31.4c0.3,0.1,0.5,0.2,0.8,0.3v-3.2c-0.3-0.1-0.6-0.2-0.8-0.3V31.4L15.7,31.4z"/>
<path class="st0" d="M37.8,28v3.1c0.7-0.3,1.2-0.9,1.4-1.7v-2.3C38.8,27.4,38.3,27.7,37.8,28z"/>
<path class="st0" d="M15.2,28.1c-0.6-0.3-1.1-0.6-1.6-1v2.3c0,0.7,0.6,1.3,1.6,1.8V28.1z"/>
<path class="st0" d="M37.3,28.2c-0.3,0.1-0.6,0.2-0.9,0.3v3.1c0.3-0.1,0.7-0.3,0.9-0.4V28.2z"/>
<path class="st0" d="M34.5,21.4c-2.9,0.8-6,1.2-9,1.2v3.2c3,0,6.1-0.4,9-1.2V21.4z"/>
<path class="st0" d="M24.5,22.6c-3,0-5.9-0.4-8.8-1.1v3.2c2.9,0.8,5.8,1.2,8.8,1.2V22.6L24.5,22.6z"/>
<path class="st0" d="M14.4,24.1c0.3,0.1,0.5,0.2,0.8,0.3v-3.2c-0.3-0.1-0.6-0.2-0.8-0.3V24.1L14.4,24.1z"/>
<path class="st0" d="M36.4,20.7v3.1c0.7-0.3,1.2-0.9,1.4-1.7v-2.3C37.4,20.2,36.9,20.5,36.4,20.7z"/>
<path class="st0" d="M13.9,20.8c-0.6-0.3-1.1-0.6-1.6-1v2.3c0,0.7,0.6,1.3,1.6,1.8V20.8L13.9,20.8z"/>
<path class="st0" d="M35.9,20.9c-0.3,0.1-0.6,0.2-0.9,0.3v3.1c0.3-0.1,0.7-0.3,0.9-0.4V20.9z"/>
<path class="st0" d="M28,19.7c-7.1,0-13-1.5-14.4-3.4c-0.7,0.3-1.2,0.9-1.3,1.6c0,2,5.7,3.7,12.8,3.7c6.2,0,11.3-1.3,12.5-3
	C34.4,19.3,31.2,19.7,28,19.7z"/>
<path class="st0" d="M37.4,14.8c-2.9,0.8-6,1.2-9,1.2v3.2c3,0,6.1-0.4,9-1.2V14.8z"/>
<path class="st0" d="M27.5,15.9c-3,0-5.9-0.4-8.8-1.1V18c2.9,0.8,5.8,1.2,8.8,1.2V15.9L27.5,15.9z"/>
<path class="st0" d="M17.3,17.5c0.3,0.1,0.5,0.2,0.8,0.3v-3.1c-0.3-0.1-0.6-0.2-0.8-0.3V17.5z"/>
<path class="st0" d="M39.4,14v3.1c0.7-0.3,1.2-0.9,1.4-1.7v-2.3C40.3,13.5,39.9,13.8,39.4,14z"/>
<path class="st0" d="M16.8,14.1c-0.6-0.3-1.1-0.6-1.6-1v2.3c0,0.7,0.6,1.3,1.6,1.8V14.1L16.8,14.1z"/>
<path class="st0" d="M38.9,14.2c-0.3,0.1-0.6,0.2-0.9,0.3v3.1c0.3-0.1,0.7-0.3,0.9-0.4V14.2z"/>
<ellipse class="st0" cx="22.2" cy="3.7" rx="12.8" ry="3.7"/>
<path class="st0" d="M36.8,8.5c-1.1,2-7.2,3.6-14.5,3.6c-2.3,0-4.6-0.2-6.9-0.5c0.7,1.8,6.1,3.3,12.7,3.3c7,0,12.8-1.7,12.8-3.7
	C40.7,10.2,39.2,9.2,36.8,8.5z"/>
<path class="st0" d="M31.7,7.2c-2.9,0.8-6,1.2-9,1.2v3.2c3,0,6.1-0.4,9-1.2V7.2z"/>
<path class="st0" d="M21.7,8.4c-3,0-5.9-0.4-8.8-1.1v3.2c2.9,0.8,5.8,1.2,8.8,1.2V8.4L21.7,8.4z"/>
<path class="st0" d="M11.6,10c0.3,0.1,0.5,0.2,0.8,0.3V7.1c-0.3-0.1-0.6-0.2-0.8-0.3V10z"/>
<path class="st0" d="M33.6,6.5v3.1c0.7-0.3,1.2-0.9,1.4-1.7V5.6C34.6,6,34.1,6.3,33.6,6.5z"/>
<path class="st0" d="M11.1,6.6C10.5,6.3,10,6,9.5,5.6v2.3c0,0.6,0.6,1.3,1.6,1.8V6.6L11.1,6.6z"/>
<path class="st0" d="M33.1,6.7c-0.3,0.1-0.6,0.2-0.9,0.4v3.1c0.3-0.1,0.7-0.3,0.9-0.4V6.7z"/>
<path class="st0" d="M38.4,23.9c-2.4,1.5-7.5,2.5-13.4,2.5c-3.8,0.1-7.7-0.4-11.3-1.5c0,0.1,0,0.2,0,0.3c0,2,5.7,3.7,12.8,3.7
	s12.8-1.7,12.8-3.7C39.1,24.7,38.8,24.2,38.4,23.9z"/>
</svg>
