<?xml version="1.0" encoding="utf-8"?>
<!-- Generator: Adobe Illustrator 23.0.2, SVG Export Plug-In . SVG Version: 6.00 Build 0)  -->
<!DOCTYPE svg PUBLIC "-//W3C//DTD SVG 1.1//EN" "http://www.w3.org/Graphics/SVG/1.1/DTD/svg11.dtd" [
	<!ENTITY ns_extend "http://ns.adobe.com/Extensibility/1.0/">
	<!ENTITY ns_ai "http://ns.adobe.com/AdobeIllustrator/10.0/">
	<!ENTITY ns_graphs "http://ns.adobe.com/Graphs/1.0/">
	<!ENTITY ns_vars "http://ns.adobe.com/Variables/1.0/">
	<!ENTITY ns_imrep "http://ns.adobe.com/ImageReplacement/1.0/">
	<!ENTITY ns_sfw "http://ns.adobe.com/SaveForWeb/1.0/">
	<!ENTITY ns_custom "http://ns.adobe.com/GenericCustomNamespace/1.0/">
	<!ENTITY ns_adobe_xpath "http://ns.adobe.com/XPath/1.0/">
]>
<svg version="1.1" id="Layer_1" xmlns:x="&ns_extend;" xmlns:i="&ns_ai;" xmlns:graph="&ns_graphs;"
	 xmlns="http://www.w3.org/2000/svg" xmlns:xlink="http://www.w3.org/1999/xlink" x="0px" y="0px" viewBox="0 0 48 48"
	 style="enable-background:new 0 0 48 48;" xml:space="preserve">
<style type="text/css">
	.st0{fill:#041E42;}
</style>
<metadata>
	<sfw  xmlns="&ns_sfw;">
		<slices></slices>
		<sliceSourceBounds  bottomLeftOrigin="true" height="48" width="48" x="0" y="0"></sliceSourceBounds>
	</sfw>
</metadata>
<path class="st0" d="M28,38H3c-1.1,0-2,0.9-2,2v4.6c0,1.1,0.9,2,2,2h25c1.1,0,2-0.9,2-2V40C30,38.9,29.1,38,28,38z M12,42h6
	c0.6,0,1,0.4,1,1s-0.4,1-1,1h-6c-0.6,0-1-0.4-1-1S11.4,42,12,42z"/>
<path class="st0" d="M28,1.4H3c-1.1,0-2,0.9-2,2V8c0,1.1,0.9,2,2,2h25c1.1,0,2-0.9,2-2V3.4C30,2.3,29.1,1.4,28,1.4z M11,5
	c0-0.6,0.4-1,1-1h6c0.6,0,1,0.4,1,1s-0.4,1-1,1h-6C11.4,6,11,5.6,11,5z"/>
<g>
	<path class="st0" d="M42,15c-1.4,0-2.8,0.3-4,1v-2c0-2.2-2.6-4-6-4s-6,1.8-6,4v15c0,2.2,2.6,4,6,4c1.4,0,2.8-0.3,4-1v2
		c0,2.2,2.6,4,6,4s6-1.8,6-4V19C48,16.8,45.4,15,42,15z M46,29c0,0.9-1.7,2-4,2s-4-1.1-4-2v-2c2.5,1.3,5.5,1.3,8,0V29z M28,17
		c2.5,1.3,5.5,1.3,8,0v2c0,0.9-1.7,2-4,2s-4-1.1-4-2V17z M28,22c2.5,1.3,5.5,1.3,8,0v2c0,0.9-1.7,2-4,2s-4-1.1-4-2V22z M46,24
		c0,0.9-1.7,2-4,2s-4-1.1-4-2v-2c2.5,1.3,5.5,1.3,8,0V24z M42,17c2.3,0,4,1.1,4,2s-1.7,2-4,2s-4-1.1-4-2S39.7,17,42,17z M32,12
		c2.3,0,4,1.1,4,2s-1.7,2-4,2s-4-1.1-4-2S29.7,12,32,12z M32,31c-2.3,0-4-1.1-4-2v-2c2.5,1.3,5.5,1.3,8,0v2C36,29.9,34.3,31,32,31z
		 M42,36c-2.3,0-4-1.1-4-2v-2c2.5,1.3,5.5,1.3,8,0v2C46,34.9,44.3,36,42,36z"/>
	<path class="st0" d="M29,35c-0.6,0-1,0.4-1,1v9c0,0.6-0.4,1-1,1H3c-0.6,0-1-0.4-1-1v-5h22c0.6,0,1-0.4,1-1s-0.4-1-1-1H2V10h22
		c0.6,0,1-0.4,1-1s-0.4-1-1-1H2V3c0-0.6,0.4-1,1-1h24c0.6,0,1,0.4,1,1v5c0,0.6,0.4,1,1,1s1-0.4,1-1V3c0-1.7-1.3-3-3-3H3
		C1.3,0,0,1.3,0,3v42c0,1.7,1.3,3,3,3h24c1.7,0,3-1.3,3-3v-9C30,35.4,29.6,35,29,35z"/>
	<path class="st0" d="M22,24c0-0.6-0.4-1-1-1h-9.6l3.3-3.3c0.4-0.4,0.3-1.1-0.1-1.4c-0.4-0.3-0.9-0.3-1.3,0l-5,5
		c-0.1,0.1-0.2,0.2-0.2,0.3v0.1c-0.1,0.2-0.1,0.4,0,0.7l0,0l0,0c0,0.1,0.1,0.2,0.2,0.3l0,0l5,5c0.4,0.4,1.1,0.3,1.4-0.1
		c0.3-0.4,0.3-0.9,0-1.3L11.4,25H21C21.6,25,22,24.6,22,24z"/>
</g>
</svg>
