<?xml version="1.0" encoding="utf-8"?>
<!-- Generator: Adobe Illustrator 23.0.1, SVG Export Plug-In . SVG Version: 6.00 Build 0)  -->
<svg version="1.1" id="Capa_1" xmlns="http://www.w3.org/2000/svg" xmlns:xlink="http://www.w3.org/1999/xlink" x="0px" y="0px"
	 viewBox="0 0 486.4 486.4" style="enable-background:new 0 0 486.4 486.4;" xml:space="preserve">
<style type="text/css">
	.st0{fill:#FFFFFF;}
	.st1{fill:#010002;}
</style>
<path d="M486.4,243.2c0,9.1-0.5,18-1.5,26.8c-7.3,66.2-41.1,124.4-90.6,163.7c-5.5,4.4-11.2,8.5-17.1,12.4
	c-5.7,3.8-11.6,7.3-17.6,10.6c-2.3,1.3-4.6,2.5-7,3.7c-32.9,16.6-70,25.9-109.4,25.9s-76.5-9.3-109.4-25.9c-2.3-1.2-4.7-2.4-7-3.7
	c-4.2-2.3-8.5-4.8-12.6-7.4c-68-42.6-113.4-117.9-114.1-204C0,244.7,0,243.9,0,243.2c0-59.9,21.6-114.7,57.5-157
	c11.3-13.4,24.1-25.6,38.1-36.3c9.8-7.5,20.2-14.3,31.2-20.3C161.4,10.7,201,0,243.2,0c42.2,0,81.8,10.7,116.4,29.6
	c10.9,6,21.4,12.8,31.2,20.3c1.2,0.9,2.4,1.8,3.5,2.7c3.3,2.6,6.5,5.3,9.7,8.1c44.2,39,74.1,93.9,80.9,155.7
	C485.9,225.2,486.4,234.2,486.4,243.2z"/>
<g>
	<g>
		<path class="st0" d="M404,60.7v335.6H57.5V86.2c11.3-13.4,24.1-25.6,38.1-36.3h295.2c1.2,0.9,2.4,1.8,3.5,2.7
			C397.6,55.2,400.8,58,404,60.7z"/>
		<g>
			<path class="st1" d="M404,60.7c-3.2-2.8-6.4-5.5-9.7-8.1c-1.2-0.9-2.3-1.8-3.5-2.7c-9.8-7.5-20.3-14.3-31.2-20.3
				C325,10.7,285.4,0,243.2,0C201,0,161.4,10.7,126.8,29.6c-10.9,6-21.3,12.8-31.2,20.3c-14,10.7-26.8,22.9-38.1,36.3
				C21.6,128.5,0,183.4,0,243.2c0,0.7,0,1.5,0.1,2.2c0.7,86,46.1,161.3,114.1,204c4.1,2.6,8.3,5.1,12.6,7.4c2.3,1.3,4.6,2.5,7,3.7
				c32.9,16.6,70.1,25.9,109.4,25.9s76.5-9.3,109.4-25.9c2.3-1.2,4.7-2.4,7-3.7c6-3.3,11.9-6.8,17.6-10.6c5.9-3.9,11.6-8,17.1-12.4
				c49.5-39.3,83.3-97.5,90.6-163.7v-53.6C478.1,154.6,448.2,99.8,404,60.7z M392.6,157.7c-8,12-18.2,22.5-29.9,30.9l0.2,7.8
				c0,79.2-60.2,170.4-170.4,170.4c-33.8,0-65.3-9.9-91.8-26.9c4.7,0.5,9.5,0.9,14.3,0.9c28.1,0,53.9-9.6,74.4-25.6
				c-26.2-0.5-48.3-17.8-55.9-41.6c3.7,0.7,7.4,1,11.3,1c5.5,0,10.8-0.7,15.8-2.1c-27.4-5.5-48-29.7-48-58.7v-0.8
				c8.1,4.5,17.3,7.2,27.1,7.5c-16-10.7-26.6-29.1-26.6-49.8c0-11,3-21.3,8.1-30.1c29.5,36.2,73.7,60.1,123.4,62.6
				c-1-4.4-1.6-9-1.6-13.7c0-33,26.8-59.9,59.9-59.9c17.2,0,32.8,7.3,43.7,18.9c13.6-2.7,26.5-7.7,38-14.5
				c-4.5,14-13.9,25.7-26.3,33.1C370.3,165.7,381.9,162.4,392.6,157.7z"/>
		</g>
	</g>
</g>
</svg>
